<svg xmlns="http://www.w3.org/2000/svg" xmlns:xlink="http://www.w3.org/1999/xlink" viewBox="0 0 102 48"><g><path d="M 0 0 L 101.463 0 L 101.463 48 L 0 48 Z" fill="transparent"></path><path d="M 7.941 13.389 L 3.025 15.158 L 3.151 9.916 L 0 5.811 L 4.978 4.295 L 7.941 0 L 10.903 4.295 L 15.881 5.811 L 12.73 9.916 L 12.856 15.158 Z M 29.241 13.389 L 24.326 15.158 L 24.515 9.916 L 21.301 5.811 L 26.28 4.295 L 29.242 0 L 32.204 4.295 L 37.182 5.811 L 34.031 9.916 L 34.157 15.158 Z M 50.542 13.389 L 45.627 15.158 L 45.816 9.916 L 42.602 5.811 L 47.644 4.295 L 50.542 0 L 53.505 4.295 L 58.483 5.811 L 55.332 9.916 L 55.458 15.158 Z M 71.843 13.389 L 66.928 15.158 L 67.117 9.916 L 63.903 5.811 L 68.945 4.295 L 71.843 0 L 74.806 4.295 L 79.847 5.811 L 76.633 9.916 L 76.759 15.158 Z M 93.145 0 L 90.245 4.295 L 85.204 5.811 L 88.418 9.916 L 88.229 15.158 L 93.145 13.389 Z" fill="rgb(255,73,44)"></path><path d="M 97.934 9.916 L 101.148 5.811 L 96.106 4.295 L 93.145 0 L 93.145 13.389 L 98.06 15.158 Z" fill="rgb(255,255,255)"></path><path d="M 25.25 35.787 C 25.25 42.207 20.059 47.411 13.651 47.411 C 7.244 47.411 2.052 42.207 2.052 35.785 C 2.052 29.364 7.244 24.161 13.651 24.161 C 20.059 24.161 25.25 29.369 25.25 35.785 Z" fill="rgb(255,73,44)"></path><path d="M 18.67 33.889 L 15.674 33.889 L 15.674 33.749 C 15.674 33.238 15.776 32.815 15.98 32.484 C 16.184 32.15 16.537 31.857 17.047 31.596 L 17.28 31.481 C 17.692 31.271 17.799 31.09 17.799 30.876 C 17.799 30.62 17.577 30.435 17.218 30.435 C 16.793 30.435 16.472 30.657 16.249 31.108 L 15.674 30.532 C 15.798 30.262 16.003 30.049 16.272 29.876 C 16.543 29.706 16.857 29.617 17.177 29.62 C 17.59 29.62 17.948 29.727 18.239 29.951 C 18.541 30.173 18.69 30.481 18.69 30.867 C 18.69 31.485 18.341 31.862 17.692 32.196 L 17.326 32.383 C 16.936 32.579 16.746 32.755 16.69 33.066 L 18.671 33.066 L 18.671 33.889 Z M 18.407 34.837 L 15.126 34.837 L 13.489 37.684 L 16.769 37.684 L 18.411 40.528 L 20.049 37.684 Z M 13.772 39.585 C 11.682 39.582 9.989 37.885 9.986 35.791 C 9.988 33.697 11.682 31.999 13.772 31.996 L 15.071 29.276 C 14.643 29.192 14.208 29.15 13.772 29.151 C 10.898 29.15 8.352 31.004 7.464 33.743 C 6.577 36.482 7.552 39.482 9.879 41.172 C 12.205 42.862 15.353 42.858 17.674 41.161 L 16.236 38.669 C 15.55 39.26 14.676 39.585 13.772 39.585 Z" fill="rgb(255,255,255)"></path></g></svg>