<svg xmlns="http://www.w3.org/2000/svg" xmlns:xlink="http://www.w3.org/1999/xlink" viewBox="0 0 108 48"><path d="M 20.179 0 L 0.096 0 L 0.096 20 L 20.179 20 Z M 41.935 0 L 21.853 0 L 21.853 20 L 41.935 20 Z M 63.691 0 L 43.609 0 L 43.609 20 L 63.691 20 Z M 85.448 0 L 65.365 0 L 65.365 20 L 85.448 20 Z" fill="rgb(0,182,122)"></path><path d="M 107.204 0 L 97.163 0 L 97.163 20 L 107.204 20 Z" fill="rgb(220,220,230)"></path><path d="M 97.163 0 L 87.121 0 L 87.121 20 L 97.163 20 Z" fill="rgb(0,182,122)"></path><path d="M 10.138 13.479 L 13.192 12.708 L 14.468 16.625 Z M 17.167 8.417 L 11.791 8.417 L 10.138 3.375 L 8.486 8.417 L 3.109 8.417 L 7.46 11.541 L 5.808 16.583 L 10.159 13.459 L 12.837 11.541 Z M 31.894 13.479 L 34.948 12.708 L 36.225 16.625 Z M 38.923 8.417 L 33.547 8.417 L 31.894 3.375 L 30.242 8.417 L 24.865 8.417 L 29.216 11.541 L 27.564 16.583 L 31.915 13.459 L 34.593 11.541 Z M 53.65 13.479 L 56.704 12.708 L 57.981 16.625 Z M 60.679 8.417 L 55.303 8.417 L 53.65 3.375 L 51.998 8.417 L 46.621 8.417 L 50.972 11.541 L 49.32 16.583 L 53.672 13.459 L 56.349 11.541 Z M 75.406 13.479 L 78.461 12.708 L 79.737 16.625 Z M 82.435 8.417 L 77.059 8.417 L 75.406 3.375 L 73.754 8.417 L 68.377 8.417 L 72.729 11.541 L 71.076 16.583 L 75.428 13.459 L 78.105 11.541 Z M 97.163 13.479 L 100.217 12.708 L 101.493 16.625 Z M 104.191 8.417 L 98.816 8.417 L 97.163 3.375 L 95.51 8.417 L 90.134 8.417 L 94.485 11.541 L 92.833 16.583 L 97.184 13.459 L 99.862 11.541 Z" fill="rgb(255,255,255)"></path><path d="M 17.74 36.96 L 24.537 36.96 L 24.537 38.223 L 21.864 38.223 L 21.864 45.324 L 20.394 45.324 L 20.394 38.222 L 17.733 38.222 L 17.733 36.96 Z M 24.246 39.268 L 25.503 39.268 L 25.503 40.436 L 25.526 40.436 C 25.572 40.264 25.65 40.101 25.758 39.958 C 25.997 39.63 26.323 39.374 26.7 39.22 C 26.896 39.144 27.097 39.102 27.299 39.102 C 27.453 39.102 27.565 39.108 27.625 39.115 C 27.684 39.12 27.744 39.132 27.809 39.138 L 27.809 40.425 C 27.712 40.408 27.615 40.394 27.518 40.383 C 27.421 40.371 27.325 40.366 27.228 40.365 C 27.003 40.365 26.789 40.412 26.588 40.501 C 26.386 40.593 26.208 40.728 26.066 40.897 C 25.908 41.089 25.788 41.309 25.71 41.546 C 25.618 41.834 25.574 42.135 25.58 42.437 L 25.58 45.317 L 24.241 45.317 L 24.241 39.268 Z M 33.966 45.324 L 32.65 45.324 L 32.65 44.479 L 32.627 44.479 C 32.458 44.789 32.202 45.043 31.891 45.211 C 31.59 45.388 31.246 45.484 30.896 45.489 C 30.096 45.489 29.515 45.293 29.16 44.899 C 28.804 44.503 28.626 43.907 28.626 43.11 L 28.626 39.268 L 29.966 39.268 L 29.966 42.98 C 29.966 43.511 30.066 43.889 30.274 44.108 C 30.476 44.325 30.766 44.438 31.133 44.438 C 31.417 44.438 31.648 44.396 31.839 44.308 C 32.028 44.219 32.182 44.108 32.295 43.96 C 32.417 43.808 32.504 43.63 32.549 43.441 C 32.603 43.24 32.627 43.021 32.627 42.785 L 32.627 39.274 L 33.966 39.274 Z M 36.248 43.381 C 36.289 43.771 36.437 44.043 36.692 44.202 C 36.953 44.356 37.261 44.438 37.622 44.438 C 37.746 44.438 37.889 44.426 38.049 44.408 C 38.204 44.39 38.355 44.353 38.5 44.296 C 38.635 44.246 38.754 44.163 38.849 44.054 C 38.938 43.948 38.98 43.812 38.974 43.641 C 38.972 43.481 38.903 43.329 38.784 43.222 C 38.653 43.105 38.5 43.014 38.334 42.956 C 38.129 42.884 37.919 42.827 37.705 42.785 C 37.468 42.738 37.231 42.685 36.989 42.632 C 36.744 42.578 36.503 42.511 36.266 42.431 C 36.042 42.359 35.832 42.251 35.643 42.113 C 35.458 41.981 35.307 41.807 35.204 41.604 C 35.092 41.398 35.038 41.145 35.038 40.837 C 35.038 40.508 35.121 40.236 35.281 40.011 C 35.442 39.787 35.649 39.611 35.892 39.475 C 36.141 39.339 36.414 39.244 36.716 39.185 C 37.001 39.132 37.291 39.105 37.581 39.102 C 37.895 39.102 38.197 39.138 38.482 39.203 C 38.767 39.268 39.027 39.374 39.258 39.527 C 39.49 39.675 39.679 39.869 39.833 40.106 C 39.987 40.342 40.082 40.631 40.123 40.968 L 38.725 40.968 C 38.66 40.648 38.518 40.43 38.286 40.324 C 38.038 40.21 37.766 40.153 37.492 40.159 C 37.379 40.159 37.266 40.167 37.154 40.182 C 37.029 40.199 36.906 40.229 36.787 40.271 C 36.677 40.312 36.578 40.376 36.496 40.46 C 36.415 40.548 36.373 40.665 36.378 40.785 C 36.378 40.949 36.437 41.08 36.55 41.18 C 36.662 41.28 36.81 41.363 36.994 41.434 C 37.178 41.499 37.385 41.558 37.622 41.605 C 37.86 41.652 38.103 41.705 38.352 41.758 C 38.594 41.812 38.832 41.883 39.068 41.959 C 39.306 42.036 39.513 42.142 39.697 42.277 C 39.881 42.413 40.029 42.58 40.141 42.78 C 40.254 42.98 40.313 43.234 40.313 43.529 C 40.313 43.889 40.23 44.19 40.064 44.444 C 39.9 44.692 39.681 44.9 39.424 45.052 C 39.152 45.211 38.856 45.326 38.547 45.394 C 38.227 45.465 37.907 45.5 37.593 45.5 C 37.233 45.505 36.874 45.461 36.526 45.371 C 36.222 45.293 35.935 45.16 35.678 44.98 C 35.444 44.807 35.251 44.583 35.115 44.325 C 34.98 44.066 34.908 43.753 34.896 43.393 L 36.248 43.393 Z M 40.669 39.268 L 41.682 39.268 L 41.682 37.45 L 43.021 37.45 L 43.021 39.268 L 44.23 39.268 L 44.23 40.265 L 43.021 40.265 L 43.021 43.5 C 43.021 43.642 43.027 43.759 43.039 43.866 C 43.049 43.957 43.077 44.045 43.122 44.125 C 43.163 44.196 43.229 44.25 43.318 44.284 C 43.406 44.32 43.52 44.338 43.673 44.338 C 43.768 44.338 43.863 44.338 43.958 44.332 C 44.052 44.325 44.147 44.314 44.243 44.291 L 44.243 45.324 C 44.094 45.341 43.946 45.353 43.81 45.371 C 43.668 45.388 43.525 45.394 43.377 45.394 C 43.021 45.394 42.737 45.358 42.523 45.293 C 42.332 45.242 42.158 45.14 42.02 44.998 C 41.895 44.862 41.809 44.695 41.771 44.515 C 41.724 44.295 41.699 44.072 41.694 43.848 L 41.694 40.277 L 40.68 40.277 L 40.68 39.268 Z M 45.179 39.268 L 46.447 39.268 L 46.447 40.088 L 46.47 40.088 C 46.66 39.734 46.921 39.486 47.258 39.332 C 47.603 39.177 47.977 39.099 48.355 39.102 C 48.835 39.102 49.25 39.185 49.606 39.356 C 49.961 39.522 50.257 39.752 50.494 40.047 C 50.731 40.342 50.904 40.684 51.022 41.074 C 51.14 41.463 51.2 41.883 51.2 42.325 C 51.2 42.732 51.146 43.128 51.039 43.506 C 50.933 43.889 50.773 44.226 50.56 44.521 C 50.345 44.815 50.065 45.055 49.742 45.223 C 49.41 45.4 49.025 45.489 48.574 45.489 C 48.377 45.489 48.181 45.471 47.988 45.436 C 47.794 45.4 47.605 45.342 47.424 45.264 C 47.245 45.188 47.077 45.087 46.926 44.964 C 46.777 44.842 46.647 44.699 46.542 44.538 L 46.518 44.538 L 46.518 47.56 L 45.179 47.56 Z M 49.86 42.301 C 49.86 42.03 49.825 41.764 49.754 41.505 C 49.683 41.245 49.576 41.02 49.434 40.82 C 49.295 40.624 49.115 40.461 48.906 40.342 C 48.683 40.22 48.432 40.157 48.177 40.159 C 47.615 40.159 47.188 40.354 46.903 40.743 C 46.619 41.132 46.477 41.652 46.477 42.301 C 46.477 42.608 46.512 42.892 46.589 43.151 C 46.666 43.411 46.773 43.636 46.926 43.824 C 47.075 44.012 47.253 44.161 47.46 44.267 C 47.667 44.379 47.911 44.432 48.183 44.432 C 48.491 44.432 48.746 44.367 48.96 44.244 C 49.167 44.122 49.345 43.957 49.481 43.759 C 49.621 43.553 49.722 43.323 49.777 43.08 C 49.831 42.827 49.86 42.567 49.86 42.301 Z M 52.225 36.96 L 53.564 36.96 L 53.564 38.223 L 52.225 38.223 L 52.225 36.961 Z M 52.225 39.268 L 53.564 39.268 L 53.564 45.324 L 52.225 45.324 Z M 54.761 36.96 L 56.101 36.96 L 56.101 45.324 L 54.761 45.324 Z M 60.208 45.489 C 59.763 45.496 59.322 45.413 58.91 45.246 C 58.546 45.095 58.217 44.87 57.944 44.586 C 57.677 44.294 57.473 43.95 57.345 43.576 C 57.204 43.162 57.134 42.727 57.138 42.29 C 57.138 41.829 57.209 41.404 57.345 41.015 C 57.473 40.641 57.677 40.297 57.944 40.005 C 58.214 39.718 58.544 39.493 58.91 39.345 C 59.322 39.178 59.763 39.095 60.208 39.102 C 60.652 39.095 61.094 39.178 61.506 39.345 C 61.885 39.504 62.205 39.728 62.471 40.005 C 62.732 40.289 62.934 40.625 63.07 41.015 C 63.207 41.404 63.277 41.829 63.277 42.29 C 63.277 42.756 63.207 43.187 63.07 43.576 C 62.942 43.95 62.738 44.294 62.471 44.586 C 62.201 44.873 61.872 45.098 61.506 45.246 C 61.094 45.413 60.652 45.496 60.208 45.489 Z M 60.208 44.432 C 60.504 44.432 60.765 44.367 60.984 44.244 C 61.198 44.122 61.383 43.954 61.523 43.753 C 61.667 43.544 61.773 43.313 61.838 43.068 C 61.903 42.815 61.938 42.555 61.938 42.29 C 61.938 42.03 61.903 41.776 61.838 41.516 C 61.777 41.271 61.67 41.039 61.523 40.832 C 61.227 40.401 60.732 40.148 60.208 40.159 C 59.937 40.153 59.669 40.218 59.431 40.348 C 59.219 40.469 59.035 40.634 58.892 40.832 C 58.748 41.04 58.642 41.272 58.578 41.516 C 58.512 41.769 58.479 42.029 58.477 42.29 C 58.477 42.555 58.513 42.814 58.578 43.068 C 58.643 43.323 58.75 43.553 58.892 43.753 C 59.034 43.954 59.213 44.119 59.431 44.243 C 59.651 44.373 59.911 44.432 60.208 44.432 Z M 63.669 39.268 L 64.682 39.268 L 64.682 37.45 L 66.022 37.45 L 66.022 39.268 L 67.23 39.268 L 67.23 40.265 L 66.022 40.265 L 66.022 43.5 C 66.022 43.642 66.027 43.759 66.039 43.866 C 66.049 43.957 66.077 44.045 66.122 44.125 C 66.164 44.196 66.229 44.25 66.318 44.284 C 66.407 44.32 66.519 44.338 66.673 44.338 C 66.768 44.338 66.863 44.338 66.958 44.332 C 67.053 44.325 67.147 44.314 67.242 44.291 L 67.242 45.324 C 67.094 45.341 66.946 45.353 66.81 45.371 C 66.667 45.388 66.525 45.394 66.377 45.394 C 66.022 45.394 65.737 45.358 65.524 45.293 C 65.332 45.242 65.158 45.14 65.02 44.998 C 64.895 44.862 64.809 44.695 64.771 44.515 C 64.725 44.295 64.699 44.072 64.694 43.848 L 64.694 40.277 L 63.681 40.277 L 63.681 39.268 Z M 8.138 42.773 L 11.642 41.87 L 13.111 46.368 Z M 16.175 36.96 L 10.035 36.96 L 8.138 31.14 L 6.243 36.96 L 0.096 36.954 L 5.069 40.548 L 3.172 46.368 L 8.138 42.773 L 11.209 40.555 Z" fill="rgb(2,42,28)"></path></svg>